<svg width="16" height="16" viewBox="0 0 16 16" fill="none" xmlns="http://www.w3.org/2000/svg">
<rect width="16" height="16" fill="#E5E5E5"/>
<g clip-path="url(#clip0_0_1)">
<rect width="1440" height="2288" transform="translate(-1165 -12)" fill="white"/>
<rect x="-1165.9" y="-12" width="1440" height="40"/>
<g clip-path="url(#clip1_0_1)">
<mask id="path-2-inside-1_0_1" fill="white">
<path d="M14.7312 2.26807C13.903 1.36975 12.7665 0.875 11.5309 0.875C10.6073 0.875 9.76147 1.16699 9.01685 1.7428C8.64111 2.03345 8.30066 2.38904 8.00049 2.80408C7.70044 2.38916 7.35986 2.03345 6.98401 1.7428C6.2395 1.16699 5.39368 0.875 4.47009 0.875C3.2345 0.875 2.0979 1.36975 1.26965 2.26807C0.451294 3.15588 0.000488281 4.36877 0.000488281 5.68347C0.000488281 7.03662 0.504761 8.27527 1.5874 9.58167C2.55591 10.7502 3.94788 11.9365 5.55981 13.3102C6.11023 13.7793 6.73413 14.311 7.38196 14.8774C7.5531 15.0273 7.77271 15.1099 8.00049 15.1099C8.22815 15.1099 8.44788 15.0273 8.61877 14.8777C9.2666 14.3112 9.89087 13.7792 10.4415 13.3098C12.0532 11.9364 13.4452 10.7502 14.4137 9.58154C15.4963 8.27527 16.0005 7.03662 16.0005 5.68335C16.0005 4.36877 15.5497 3.15588 14.7312 2.26807Z"/>
</mask>
<path d="M14.7312 2.26807C13.903 1.36975 12.7665 0.875 11.5309 0.875C10.6073 0.875 9.76147 1.16699 9.01685 1.7428C8.64111 2.03345 8.30066 2.38904 8.00049 2.80408C7.70044 2.38916 7.35986 2.03345 6.98401 1.7428C6.2395 1.16699 5.39368 0.875 4.47009 0.875C3.2345 0.875 2.0979 1.36975 1.26965 2.26807C0.451294 3.15588 0.000488281 4.36877 0.000488281 5.68347C0.000488281 7.03662 0.504761 8.27527 1.5874 9.58167C2.55591 10.7502 3.94788 11.9365 5.55981 13.3102C6.11023 13.7793 6.73413 14.311 7.38196 14.8774C7.5531 15.0273 7.77271 15.1099 8.00049 15.1099C8.22815 15.1099 8.44788 15.0273 8.61877 14.8777C9.2666 14.3112 9.89087 13.7792 10.4415 13.3098C12.0532 11.9364 13.4452 10.7502 14.4137 9.58154C15.4963 8.27527 16.0005 7.03662 16.0005 5.68335C16.0005 4.36877 15.5497 3.15588 14.7312 2.26807Z" stroke="#8291A3" stroke-width="4" mask="url(#path-2-inside-1_0_1)"/>
</g>
</g>
<defs>
<clipPath id="clip0_0_1">
<rect width="1440" height="2288" fill="white" transform="translate(-1165 -12)"/>
</clipPath>
<clipPath id="clip1_0_1">
<rect width="16" height="16" fill="white" transform="translate(0.000488281)"/>
</clipPath>
</defs>
</svg>
